<?xml version="1.0" standalone="no"?>
<!DOCTYPE svg PUBLIC "-//W3C//DTD SVG 1.1//EN" "http://www.w3.org/Graphics/SVG/1.1/DTD/svg11.dtd" >
<svg xmlns="http://www.w3.org/2000/svg">
<metadata></metadata>
<defs>
<font id="lg_smartregular" horiz-adv-x="1064" >
<font-face units-per-em="2048" ascent="1466" descent="-582" />
<missing-glyph horiz-adv-x="419" />
<glyph unicode="&#xfb01;" horiz-adv-x="1003" d="M47 752v114h121v88q0 96 30.5 164t85 110t128 61.5t159.5 19.5q92 0 175 -13.5t139 -29.5v-172h-144v86q-12 4 -26 6q-57 12 -137 12q-137 0 -202 -65.5t-65 -188.5v-78h574v-866h-144v752h-430v-752h-143v752h-121z" />
<glyph unicode="&#xfb02;" horiz-adv-x="1019" d="M47 752v114h121v90q0 98 30.5 165t86 109t130 60.5t160.5 18.5q94 0 175 -13.5t135 -29.5v-1045q0 -78 19.5 -98.5t66.5 -20.5v-108q-4 -2 -17 -2q-8 -2 -32 -2q-102 0 -140.5 59.5t-38.5 169.5v961q-14 2 -28 6q-59 12 -140 12q-137 0 -200.5 -65.5t-63.5 -188.5v-78 h293v-114h-293v-752h-143v752h-121z" />
<glyph horiz-adv-x="0" />
<glyph unicode="&#xd;" horiz-adv-x="419" />
<glyph horiz-adv-x="0" />
<glyph horiz-adv-x="0" />
<glyph unicode=" "  horiz-adv-x="419" />
<glyph unicode="&#x09;" horiz-adv-x="419" />
<glyph unicode="&#xa0;" horiz-adv-x="419" />
<glyph unicode="!" horiz-adv-x="423" d="M131 0v158h162v-158h-162zM137 1245h152l-13 -946h-126z" />
<glyph unicode="&#x22;" horiz-adv-x="704" d="M125 1298h149l-24 -424h-103zM428 1298h149l-24 -424h-103z" />
<glyph unicode="#" horiz-adv-x="991" d="M119 279v110h151v227h-151v111h151v131h121v-131h207v131h121v-131h151v-111h-151v-227h151v-110h-151v-132h-121v132h-207v-132h-121v132h-151zM391 389h207v227h-207v-227z" />
<glyph unicode="$" horiz-adv-x="991" d="M80 63l55 117q84 -37 162 -57q70 -16 154 -19v463q-43 16 -84 35q-49 20 -91 43q-43 23 -77.5 49.5t-59 61.5t-37 80t-12.5 104q0 82 34 143.5t94.5 101.5t139.5 58q45 10 93 17v165h108v-161q193 -6 336 -74l-51 -115q-61 29 -137 47q-66 16 -148 21v-459q39 -14 78 -31 q51 -20 94 -43q39 -23 74 -47t60.5 -59t40 -81t14.5 -108q0 -84 -34 -147.5t-93.5 -104t-141.5 -61.5q-45 -10 -92 -16v-154h-108v150q-94 2 -187 20q-102 20 -184 61zM240 950q0 -61 28.5 -106t93.5 -80q35 -18 80 -37q4 0 9 -2v412q-83 -10 -136 -45q-76 -49 -75 -142z M559 109q88 12 137 49q76 53 76 145q0 59 -27.5 104.5t-89.5 75.5q-37 18 -86 37l-10 4v-415z" />
<glyph unicode="%" horiz-adv-x="1368" d="M72 936q0 154 58 244t187 90q123 0 183.5 -90t60.5 -244q0 -147 -60.5 -238.5t-183.5 -91.5q-129 0 -187 91t-58 239zM160 -55l903 1368h147l-903 -1368h-147zM188 936q0 -113 31 -174.5t98 -61.5q68 0 97.5 61.5t29.5 174.5q0 115 -29.5 178.5t-97.5 63.5t-98.5 -63.5 t-30.5 -178.5zM823 315q0 154 59.5 244t188.5 90q123 0 182.5 -90t59.5 -244q0 -147 -59.5 -238t-182.5 -91q-129 0 -188.5 91t-59.5 238zM940 315q0 -113 30.5 -174t100.5 -61q68 0 96.5 61t28.5 174q0 115 -28.5 178.5t-96.5 63.5q-70 0 -100.5 -63.5t-30.5 -178.5z" />
<glyph unicode="&#x26;" horiz-adv-x="1136" d="M63 301q0 147 89 244q66 72 174 131q-41 51 -70 100q-49 84 -49 185q0 139 93 222t253 83q137 0 226 -65.5t89 -199.5q0 -76 -30.5 -133t-84 -101t-124.5 -81q-45 -23 -94 -45l278 -307q20 33 41 65q49 86 88 172l125 -43q-49 -102 -109 -202q-29 -45 -59 -88l217 -238 h-180l-125 137q-70 -68 -158 -110q-96 -47 -219 -47q-78 0 -145.5 15t-117.5 53t-79 99.5t-29 153.5zM209 309q0 -109 62.5 -160t166.5 -51q92 0 168 41q66 37 121 92l-319 351q-78 -44 -129 -93q-70 -70 -70 -180zM352 965q0 -43 9.5 -78t30 -69t48.5 -70q6 -8 13 -15 q40 19 79 37q57 27 100.5 57.5t67 68.5t23.5 91q0 74 -44 118t-124 44q-104 0 -153.5 -49t-49.5 -135z" />
<glyph unicode="'" horiz-adv-x="387" d="M119 1298h149l-24 -424h-103z" />
<glyph unicode="(" horiz-adv-x="614" d="M86 502q0 156 26.5 277.5t75 223t116 189.5t149.5 176l94 -78q-78 -86 -137.5 -168t-99.5 -174t-60.5 -200.5t-20.5 -245.5q0 -141 21.5 -251t61.5 -203t99.5 -176t135.5 -169l-94 -80q-82 90 -149.5 179t-116 190.5t-75 225.5t-26.5 284z" />
<glyph unicode=")" horiz-adv-x="614" d="M68 -297q76 88 134 171t99 175t62.5 201.5t21.5 251.5q0 137 -20.5 245.5t-60.5 200.5t-99.5 174t-136.5 168l94 78q82 -88 149.5 -176t115.5 -189.5t74.5 -223t26.5 -277.5q0 -160 -26.5 -284t-75.5 -225.5t-116.5 -190.5t-147.5 -179z" />
<glyph unicode="*" horiz-adv-x="831" d="M70 973l43 139l249 -100l-18 268h145l-18 -268l250 100l43 -139l-260 -66l180 -213l-119 -84l-147 234l-148 -234l-120 84l180 213z" />
<glyph unicode="+" d="M147 442v121h320v307h129v-307h319v-121h-319v-307h-129v307h-320z" />
<glyph unicode="," horiz-adv-x="339" d="M14 -215q47 92 68.5 179t21.5 196h140q-2 -143 -36 -241.5t-97 -192.5z" />
<glyph unicode="-" horiz-adv-x="690" d="M111 379v125h471v-125h-471z" />
<glyph unicode="." horiz-adv-x="344" d="M90 0v160h164v-160h-164z" />
<glyph unicode="/" horiz-adv-x="671" d="M18 -76l496 1368h139l-497 -1368h-138z" />
<glyph unicode="0" d="M90 616q0 129 21.5 247t74 207t138.5 142.5t215 53.5q125 0 207.5 -53.5t133 -142.5t72 -203.5t21.5 -239.5q0 -131 -22.5 -248t-75 -206t-138.5 -141t-215 -52q-127 0 -210 55t-132 144t-69.5 204t-20.5 233zM238 616q0 -115 14 -210t48 -163.5t88 -106.5t134 -38 q86 0 144.5 39t93.5 108.5t50 167t15 214.5q0 98 -13 191t-46 167t-88 118t-139 44q-86 -2 -143.5 -41t-92.5 -108.5t-50 -167t-15 -214.5z" />
<glyph unicode="1" d="M190 1059l361 186h104v-1245h-145v1098l-268 -142z" />
<glyph unicode="2" d="M121 1163q82 45 172 74t201 29q94 0 170.5 -20.5t132 -64.5t86 -110.5t30.5 -159.5q0 -121 -76.5 -236.5t-205.5 -252.5l-283 -303h596v-119h-797v92l371 395q68 74 115 132.5t74.5 107.5t40 93t12.5 87q0 121 -76 180.5t-199 59.5q-92 0 -169.5 -27.5t-141.5 -62.5z" />
<glyph unicode="3" d="M96 121l82 96q23 -18 54.5 -37.5t72.5 -37t91 -29t110 -11.5q141 0 224 62.5t83 183.5t-85 182.5t-239 61.5q-23 0 -48 -2t-35 -4v123h57q135 0 220 54t85 171q0 111 -69.5 161t-186.5 50q-49 0 -95 -11.5t-85 -27.5t-71 -35.5t-54 -34.5l-64 99q23 18 60 40.5t85 42 t107.5 34t124.5 14.5q193 0 296.5 -80t103.5 -242q0 -111 -58.5 -178.5t-142.5 -95.5q113 -33 180.5 -112t67.5 -210q0 -182 -124 -275t-335 -93q-80 0 -144.5 13t-115.5 33.5t-89 45t-63 49.5z" />
<glyph unicode="4" d="M61 281v90l531 874h225v-850h162v-114h-162v-281h-143v281h-613zM225 395h449v731h-17z" />
<glyph unicode="5" d="M129 111l82 100q23 -18 51.5 -37.5t64 -36t77.5 -27t92 -10.5q143 0 222 71t79 206q0 145 -97.5 211.5t-255.5 66.5h-235v590h665v-119h-518v-352h82q266 0 388 -103.5t122 -285.5q-2 -199 -122.5 -302t-333.5 -103q-66 0 -122.5 12t-101.5 31.5t-79.5 42t-59.5 45.5z " />
<glyph unicode="6" d="M111 565q0 158 31.5 287t98 221t170 142t246.5 50q78 0 137.5 -12t106.5 -28l-37 -113q-39 14 -90 24.5t-108 10.5q-117 0 -195 -46t-124 -125t-64 -184q-8 -43 -13 -88q45 31 105 54q84 31 188 30q188 0 288.5 -97t100.5 -286q0 -199 -108.5 -312.5t-302.5 -113.5 q-211 0 -320.5 141.5t-109.5 444.5zM262 569q0 -88 10.5 -173t41 -151.5t86 -107.5t143.5 -41q115 0 187.5 74t72.5 227q0 139 -70.5 203.5t-193.5 64.5q-109 0 -185 -36q-53 -27 -92 -56v-4z" />
<glyph unicode="7" d="M96 1126v119h873v-88l-463 -1157h-156l457 1126h-711z" />
<glyph unicode="8" d="M92 336q0 119 64.5 196.5t160.5 112.5q-86 37 -138 105.5t-52 181.5q0 160 105.5 247t299.5 87q193 0 298.5 -87t105.5 -247q0 -109 -51 -180.5t-137 -106.5q96 -35 159.5 -110.5t63.5 -198.5q0 -174 -115 -265t-324 -91q-207 0 -323.5 91t-116.5 265zM248 344 q0 -123 74.5 -185.5t209.5 -62.5q131 0 207 62.5t76 185.5q0 117 -75.5 176.5t-207.5 59.5q-135 0 -209.5 -59.5t-74.5 -176.5zM279 920q0 -106 66.5 -164t186.5 -58q119 0 184.5 58t65.5 164q0 115 -65.5 172t-184.5 57q-121 0 -187 -57.5t-66 -171.5z" />
<glyph unicode="9" d="M113 840q0 199 108.5 312.5t302.5 113.5q211 0 320.5 -141.5t109.5 -444.5q0 -158 -31.5 -287t-98 -221t-170 -142t-246.5 -50q-78 0 -137.5 12t-106.5 28l37 113q39 -14 90 -24.5t108 -10.5q117 0 195 46t124 125t64 184q8 43 13 88q-45 -31 -105 -54q-84 -31 -188 -30 q-188 0 -288.5 97t-100.5 286zM262 848q0 -139 70.5 -203.5t193.5 -64.5q109 0 185 36q53 27 92 56v4q0 88 -10.5 173t-41 151.5t-86 107.5t-143.5 41q-115 0 -187.5 -74t-72.5 -227z" />
<glyph unicode=":" horiz-adv-x="344" d="M90 0v160h164v-160h-164zM90 705v160h164v-160h-164z" />
<glyph unicode=";" horiz-adv-x="344" d="M14 -215q47 92 68.5 179t21.5 196h140q-2 -143 -36 -241.5t-97 -192.5zM92 705v160h164v-160h-164z" />
<glyph unicode="&#x3c;" d="M207 502l524 524l90 -86l-436 -434l438 -438l-92 -91z" />
<glyph unicode="=" d="M145 322v120h773v-120h-773zM145 563v119h773v-119h-773z" />
<glyph unicode="&#x3e;" d="M201 935l92 91l524 -525l-524 -524l-90 86l436 434z" />
<glyph unicode="?" horiz-adv-x="774" d="M23 1176q59 37 141 63.5t180 26.5q160 0 256 -77t96 -222q0 -66 -23.5 -117t-57 -96t-74.5 -85t-75 -85t-57.5 -96.5t-23.5 -116.5v-72h-137v88q0 111 46 187.5t101.5 138t101.5 118t46 123.5q0 82 -55.5 135.5t-161.5 53.5q-78 0 -142.5 -24.5t-111.5 -53.5zM240 0v158 h159v-158h-159z" />
<glyph unicode="@" horiz-adv-x="1882" d="M84 270q0 242 71.5 428.5t201.5 312.5t311.5 190.5t402.5 64.5q170 0 307.5 -38t232.5 -121t146 -213t51 -314q0 -121 -28.5 -228.5t-87 -187.5t-147.5 -127t-210 -47q-111 0 -178 53q-41 33 -61 92q-6 -8 -15 -18q-35 -39 -79 -70t-99 -49t-123 -18q-70 0 -121 24.5 t-83.5 68.5t-48 104.5t-15.5 131.5q0 289 140.5 433.5t400.5 144.5q68 0 140.5 -14.5t125.5 -38.5l-94 -467q-4 -29 -9.5 -56.5t-5.5 -56.5q0 -61 34 -103t104 -42q84 0 144 36.5t100 101t58.5 150.5t18.5 187q0 158 -41 265t-119.5 174t-192.5 96.5t-257 29.5 q-197 0 -351.5 -58.5t-262 -171t-165 -276.5t-57.5 -373q0 -156 41 -264t117 -177t184.5 -99.5t243.5 -30.5q98 0 174 13.5t168 39.5l33 -110q-86 -29 -180.5 -46.5t-198.5 -17.5q-172 0 -306 41t-226.5 126t-140.5 215t-48 310zM655 326q0 -111 39 -171.5t113 -60.5 q51 0 91 15.5t75 43t65 68.5q14 18 29 41l107 498q-9 4 -17 6q-45 10 -108 10q-201 0 -297.5 -120.5t-96.5 -329.5z" />
<glyph unicode="A" horiz-adv-x="1157" d="M14 0l455 1245h213l461 -1245h-160l-133 365h-549l-129 -365h-158zM342 487h465l-225 639h-17z" />
<glyph unicode="B" horiz-adv-x="1077" d="M137 0v1245h436q174 0 281 -71.5t107 -235.5q0 -109 -50.5 -176t-144.5 -98q104 -29 167.5 -103t63.5 -211q0 -94 -32.5 -160.5t-89 -108.5t-130 -61.5t-153.5 -19.5h-455zM281 121h288q51 0 101.5 9t89.5 34.5t62.5 71t23.5 116.5q0 68 -19.5 113t-54.5 72.5t-83 40 t-105 12.5h-303v-469zM281 707h292q119 0 176.5 55t57.5 153q0 63 -18.5 104.5t-52.5 64t-79 31.5t-98 9h-278v-417z" />
<glyph unicode="C" horiz-adv-x="1103" d="M80 623q0 168 39 289.5t111.5 199.5t176 116t234.5 38q121 0 223.5 -40t163.5 -116l-88 -86q-53 57 -121.5 89t-173.5 32q-217 0 -315.5 -138.5t-98.5 -402.5q0 -240 92.5 -370t299.5 -130q125 0 214 24t154 50l37 -112q-70 -33 -180.5 -59.5t-231.5 -26.5 q-283 2 -409.5 162.5t-126.5 480.5z" />
<glyph unicode="D" horiz-adv-x="1173" d="M137 0v1245h352q145 0 258 -33.5t190 -108.5t117 -195t40 -292q0 -176 -48.5 -294.5t-135.5 -190.5t-206.5 -101.5t-263.5 -29.5h-303zM283 121h153q121 0 215 23.5t158.5 83t97.5 159.5t33 254q0 252 -112.5 367.5t-335.5 115.5h-209v-1003z" />
<glyph unicode="E" horiz-adv-x="997" d="M137 0v1245h742v-121h-596v-422h575v-120h-575v-461h616v-121h-762z" />
<glyph unicode="F" horiz-adv-x="929" d="M137 0v1245h707v-121h-561v-422h520v-120h-520v-582h-146z" />
<glyph unicode="G" horiz-adv-x="1196" d="M80 623q0 168 40 289.5t114.5 199.5t180 116t238.5 38q129 0 231.5 -40t166.5 -118l-88 -84q-53 55 -125 89t-181 34q-223 0 -324.5 -140.5t-101.5 -402.5q0 -242 96.5 -373t307.5 -131q111 0 190 17q55 12 99 24v373h-312v121h455v-574q-78 -33 -192.5 -57t-245.5 -24 q-287 0 -418 160.5t-131 482.5z" />
<glyph unicode="H" horiz-adv-x="1224" d="M137 0v1245h146v-559h657v559h147v-1245h-147v563h-657v-563h-146z" />
<glyph unicode="I" horiz-adv-x="419" d="M137 0v1245h146v-1245h-146z" />
<glyph unicode="J" horiz-adv-x="630" d="M14 14l23 115q29 -10 62.5 -14t66.5 -4q92 0 140 47t48 178v909h146v-887q0 -197 -75 -282.5t-249 -85.5q-43 0 -85 6t-77 18z" />
<glyph unicode="K" horiz-adv-x="1042" d="M137 0v1245h146v-561h106l483 561h168l-526 -614l498 -631h-178l-445 565h-106v-565h-146z" />
<glyph unicode="L" horiz-adv-x="864" d="M137 0v1245h146v-1124h581v-121h-727z" />
<glyph unicode="M" horiz-adv-x="1507" d="M137 0v1245h269l352 -1126h16l336 1126h260v-1245h-145v1126h-17l-344 -1126h-202l-365 1126h-14v-1126h-146z" />
<glyph unicode="N" horiz-adv-x="1271" d="M137 0v1245h258l578 -1126h16v1126h146v-1245h-258l-578 1126h-16v-1126h-146z" />
<glyph unicode="O" horiz-adv-x="1208" d="M80 629q0 326 133 481.5t414 155.5q139 0 235 -44t155.5 -128t85 -204t25.5 -274q0 -324 -134 -480t-414 -156q-141 0 -236.5 44t-154 128t-84 204.5t-25.5 272.5zM229 608q0 -106 15.5 -199.5t54.5 -162t106.5 -107.5t169.5 -39q117 0 194 35t123 102.5t65.5 169 t19.5 234.5q0 104 -15.5 196.5t-54.5 161t-106.5 108.5t-171.5 40q-115 0 -191 -35t-123 -102.5t-66.5 -169t-19.5 -232.5z" />
<glyph unicode="P" horiz-adv-x="1040" d="M137 0v1245h418q207 0 312.5 -91t105.5 -275q0 -188 -107.5 -291t-283.5 -103h-299v-485h-146zM283 606h276q121 0 193.5 65.5t72.5 207.5q0 66 -20.5 111.5t-56 75.5t-84 44t-105.5 14h-276v-518z" />
<glyph unicode="Q" horiz-adv-x="1208" d="M80 629q0 326 133 481.5t416 155.5q141 0 236.5 -44t153.5 -128t83.5 -204t25.5 -274q0 -172 -39.5 -292.5t-113.5 -198.5q-39 -41 -84 -70l244 -233l-111 -84l-262 264q-80 -22 -174 -22h-8q-141 0 -236.5 44t-154 128t-84 203.5t-25.5 273.5zM229 608q0 -109 15.5 -202 t54.5 -161.5t105.5 -107.5t170.5 -39q117 0 194 35t123 102.5t65.5 169t19.5 236.5q0 104 -15.5 196.5t-53.5 161t-105.5 108.5t-171.5 40q-115 0 -193 -35t-124 -102.5t-65.5 -169t-19.5 -232.5z" />
<glyph unicode="R" horiz-adv-x="1075" d="M137 0v1245h428q207 0 311.5 -83t104.5 -271q0 -160 -84 -246q-61 -66 -158 -96l273 -549h-160l-258 526h-311v-526h-146zM283 647h288q121 0 189.5 54.5t68.5 189.5q0 121 -65.5 177t-192.5 56h-288v-477z" />
<glyph unicode="S" horiz-adv-x="983" d="M72 63l55 117q84 -39 163 -58.5t171 -19.5q154 0 229.5 54.5t75.5 146.5q0 121 -117 180q-39 18 -88 38t-100 40.5t-101.5 41t-91.5 42.5q-88 47 -136 111.5t-48 183.5q0 82 34 143.5t93 102.5t140 60.5t173 19.5q207 0 363 -76l-51 -115q-53 25 -133 47.5t-177 22.5 q-139 0 -217 -51.5t-78 -143.5q0 -61 29 -105t94 -79q35 -18 81 -36.5t96.5 -37t99.5 -39t92 -43.5q39 -23 73.5 -47t60.5 -59t40 -81t14 -108q0 -84 -33.5 -147.5t-93 -105.5t-141.5 -62t-178 -20q-104 0 -207.5 21.5t-185.5 61.5z" />
<glyph unicode="T" horiz-adv-x="931" d="M0 1124v121h932v-121h-393v-1124h-146v1124h-393z" />
<glyph unicode="U" horiz-adv-x="1173" d="M125 477v768h145v-799q0 -164 66.5 -256t232.5 -92q94 0 158 20.5t102.5 66.5t56 118t17.5 176v766h146v-780q0 -258 -120 -371.5t-358 -113.5q-231 0 -338.5 117.5t-107.5 379.5z" />
<glyph unicode="V" horiz-adv-x="1056" d="M10 1245h160l360 -1126h17l346 1126h151l-401 -1245h-211z" />
<glyph unicode="W" horiz-adv-x="1742" d="M18 1245h160l299 -1126h17l264 1126h233l279 -1126h16l285 1126h153l-338 -1245h-225l-278 1126h-17l-270 -1126h-225z" />
<glyph unicode="X" horiz-adv-x="1103" d="M25 0l395 641l-371 604h172l311 -530h37l318 530h162l-369 -602l399 -643h-170l-342 569h-37l-335 -569h-170z" />
<glyph unicode="Y" horiz-adv-x="1034" d="M-2 1245h174l338 -561h16l340 561h170l-446 -706v-539h-146v539z" />
<glyph unicode="Z" horiz-adv-x="1009" d="M41 0v98l727 1028h-680v119h858v-98l-725 -1026h723v-121h-903z" />
<glyph unicode="[" horiz-adv-x="630" d="M111 -362v1699h430v-118h-287v-1463h287v-118h-430z" />
<glyph unicode="\" horiz-adv-x="671" d="M18 1292h138l497 -1368h-137z" />
<glyph unicode="]" horiz-adv-x="630" d="M90 -244h287v1463h-287v118h430v-1699h-430v118z" />
<glyph unicode="^" horiz-adv-x="843" d="M68 584l241 661h223l244 -661h-133l-213 569h-16l-209 -569h-137z" />
<glyph unicode="_" horiz-adv-x="798" d="M74 -82h651v-111h-651v111z" />
<glyph unicode="`" horiz-adv-x="991" d="M293 1292h162l221 -299h-141z" />
<glyph unicode="a" horiz-adv-x="876" d="M66 246q0 80 27.5 130t76.5 79.5t116.5 41t147.5 11.5q53 0 93 -2t91 -6v45q0 63 -9 107t-32.5 71t-64.5 39t-104 12q-74 0 -148 -21.5t-121 -43.5l-35 100q66 31 154 54.5t188 23.5q90 0 150.5 -18.5t97.5 -60.5t52.5 -109.5t15.5 -168.5v-313q0 -66 19.5 -90.5 t62.5 -24.5v-106q-12 -4 -25 -4h-28q-66 0 -100 25.5t-52 72.5q-47 -43 -123 -76.5t-176 -33.5q-78 0 -131 20t-85 56t-45 84t-13 106zM215 252q0 -84 38 -123t130 -39q63 0 125.5 27.5t109.5 66.5v207q-49 4 -95 7t-101 3q-117 0 -162 -36.5t-45 -112.5z" />
<glyph unicode="b" horiz-adv-x="940" d="M119 0v1288l143 21v-496q47 31 94 47q70 27 156 27q184 0 270 -115t86 -326q0 -102 -22.5 -188t-72.5 -147.5t-128.5 -96t-189.5 -34.5q-70 0 -121 16q-45 12 -96 39l-13 -35h-106zM262 143q80 -53 178 -53q135 0 207 83t72 273q0 66 -11.5 125.5t-40 104.5t-75.5 71.5 t-121 26.5q-78 0 -137 -33q-37 -20 -72 -49v-549z" />
<glyph unicode="c" horiz-adv-x="813" d="M74 420q0 231 111.5 349t324.5 118q82 0 153.5 -28t112.5 -75l-86 -84q-33 35 -79 55.5t-103 20.5q-141 0 -215 -88t-74 -274q0 -72 14.5 -131.5t47 -102.5t85 -66.5t126.5 -23.5q76 0 133 16.5t106 38.5l33 -96q-41 -25 -119 -47t-166 -22q-217 0 -311 114.5t-94 325.5z " />
<glyph unicode="d" horiz-adv-x="944" d="M72 420q0 102 22.5 188t72.5 147.5t129 96.5t189 35q70 0 121 -15q33 -10 72 -28v444l143 21v-1088l15 -221h-125l-17 61q-55 -37 -110 -57q-70 -24 -156 -24q-184 0 -270 115.5t-86 324.5zM219 420q0 -66 11.5 -125t40 -104.5t76.5 -72t122 -26.5q78 0 135 31 q37 20 74 49v551q-80 53 -178 53q-137 0 -209 -83t-72 -273z" />
<glyph unicode="e" horiz-adv-x="892" d="M74 438q0 229 98 339t299 110q106 0 175 -32t108 -88t53 -134t14 -168v-68h-600q0 -74 12 -125q16 -66 50 -105.5t87.5 -57t125.5 -17.5q92 0 161.5 23.5t112.5 46.5l37 -99q-23 -14 -58.5 -28.5t-80.5 -26.5t-94.5 -20t-98.5 -8q-113 0 -189.5 28.5t-123.5 85 t-67.5 142.5t-20.5 202zM221 504h451q0 154 -54.5 214t-146.5 60q-72 0 -120 -20.5t-77.5 -63.5t-42.5 -108q-6 -37 -10 -82z" />
<glyph unicode="f" horiz-adv-x="614" d="M41 752v114h127v107q0 96 22.5 160.5t64.5 103.5t99.5 55.5t128.5 16.5q47 0 95.5 -9.5t87.5 -21.5l-33 -111q-68 25 -144 25q-98 0 -138 -52.5t-40 -176.5v-97h318v-114h-318v-752h-143v752h-127z" />
<glyph unicode="g" horiz-adv-x="942" d="M74 418q0 102 22.5 188t71.5 148.5t128 97.5t193 35q68 0 118 -15.5t95 -35.5l11 30h110v-907q0 -106 -28.5 -179t-80.5 -119t-126 -66.5t-162 -20.5q-84 0 -152.5 11.5t-119.5 31.5l36 109q43 -12 101.5 -24.5t132.5 -12.5q55 0 101 11t81 41t54.5 79t19.5 123v104 q-53 -31 -111.5 -49t-130.5 -18q-190 0 -277 113.5t-87 324.5zM221 418q0 -61 11.5 -120.5t40 -106t77.5 -74t127 -27.5q57 0 105.5 18.5t97.5 51.5v569q-37 18 -80 32.5t-94 14.5q-147 0 -216 -85t-69 -273z" />
<glyph unicode="h" horiz-adv-x="944" d="M119 0v1288l143 21v-508q45 29 98 49q98 37 191 37q86 0 141.5 -21.5t87 -63.5t44 -103.5t12.5 -141.5v-557h-144v526q0 55 -6 99.5t-24.5 76t-54.5 49t-93 17.5q-49 0 -95 -13.5t-89 -35.5q-37 -18 -68 -41v-678h-143z" />
<glyph unicode="i" horiz-adv-x="382" d="M117 1071v152h145v-152h-145zM119 0v866h143v-866h-143z" />
<glyph unicode="j" horiz-adv-x="382" d="M-49 -311h12q49 0 80 9t48.5 32.5t22.5 64.5t5 103v968h143v-929q0 -90 -10 -159t-41 -114t-89.5 -67.5t-152.5 -22.5h-18v115zM117 1071v152h145v-152h-145z" />
<glyph unicode="k" horiz-adv-x="868" d="M119 0v1288l141 21v-781h88l334 338h166l-385 -395l399 -471h-168l-348 414h-86v-414h-141z" />
<glyph unicode="l" horiz-adv-x="395" d="M119 219v1069l141 21v-1088q0 -78 19.5 -98.5t68.5 -20.5v-108q-6 -2 -16 -2q-10 -2 -35 -2q-102 0 -140 59.5t-38 169.5z" />
<glyph unicode="m" horiz-adv-x="1435" d="M104 866h134l6 -73q49 35 106 57q88 37 176 37q84 0 136.5 -21.5t80.5 -64.5q6 -6 11 -15q53 39 118 64q96 37 185 37q82 0 135 -21.5t82 -63.5t40 -103.5t11 -141.5v-557h-141v526q0 55 -5 99.5t-22.5 77t-49.5 50t-85 17.5q-47 0 -91 -13.5t-83 -35.5q-33 -18 -62 -39 q8 -55 9 -125v-557h-144v526q0 55 -5 99.5t-22.5 77t-49 50t-82.5 17.5q-96 0 -177 -49q-29 -16 -53 -35v-686h-143v635z" />
<glyph unicode="n" horiz-adv-x="944" d="M104 866h134l6 -78q53 37 116 62q98 37 191 37q86 0 141.5 -21.5t87 -62.5t44 -103.5t12.5 -142.5v-557h-144v526q0 55 -6 99.5t-24.5 77t-54.5 50t-93 17.5q-49 0 -95 -13.5t-89 -35.5q-37 -18 -68 -41v-680h-143v635z" />
<glyph unicode="o" horiz-adv-x="956" d="M74 436q0 229 102.5 340t321.5 111q111 0 184.5 -32t117.5 -90t63.5 -144t19.5 -193q0 -229 -103.5 -338.5t-322.5 -109.5q-111 0 -184.5 31.5t-117.5 90t-62.5 143.5t-18.5 191zM219 422q0 -70 10.5 -130.5t37 -105.5t72.5 -70.5t118 -25.5q160 0 219 89t59 265 q0 68 -10 129.5t-36.5 106.5t-73 71.5t-117.5 26.5q-160 0 -219.5 -91t-59.5 -265z" />
<glyph unicode="p" horiz-adv-x="940" d="M104 866h125l15 -63q55 37 112 57q70 27 156 27q184 0 270 -115t86 -326q0 -102 -22.5 -188t-72.5 -147.5t-129 -96t-189 -34.5q-70 0 -121 16q-35 8 -72 27v-429l-143 -20v1073zM262 143q80 -53 178 -53q135 0 207 83t72 273q0 66 -11.5 125.5t-40 104.5t-75.5 71.5 t-121 26.5q-78 0 -137 -33q-37 -20 -72 -49v-549z" />
<glyph unicode="q" horiz-adv-x="942" d="M72 420q0 102 22.5 188t72.5 147.5t128.5 96.5t189.5 35q70 0 121 -15q43 -12 96 -41l11 35h108v-1272l-143 -20v477q-47 -29 -94 -47q-67 -24 -149 -24h-7q-184 0 -270 115.5t-86 324.5zM219 420q0 -66 11.5 -125t40 -104.5t76.5 -72t122 -26.5q78 0 135 31q37 20 74 49 v551q-80 53 -178 53q-137 0 -209 -83t-72 -273z" />
<glyph unicode="r" horiz-adv-x="643" d="M102 866h131l15 -118q55 63 117 94q86 45 174 45q70 0 114 -23l-39 -121q-41 18 -100 19q-78 0 -149 -47q-51 -35 -99 -88v-627h-143v629z" />
<glyph unicode="s" horiz-adv-x="794" d="M63 39l48 108q45 -25 112.5 -40t145.5 -15q43 0 83 4t70.5 18.5t49 39t18.5 65.5q0 82 -107 121q-59 27 -127.5 48.5t-122.5 45.5q-70 27 -112.5 73t-42.5 132q0 70 30.5 118t81 76.5t113 41t125.5 12.5q98 0 170 -16.5t119 -34.5l-45 -109q-51 23 -111.5 36t-136.5 13 q-115 0 -161 -35.5t-46 -83.5q0 -43 22.5 -68t75.5 -48q43 -23 113 -45.5t133 -49.5q74 -29 122 -76.5t48 -140.5q0 -129 -95 -189t-269 -60q-84 0 -165 16t-139 43z" />
<glyph unicode="t" horiz-adv-x="688" d="M23 750v100l147 16v181l141 24v-205h328v-114h-328v-426q0 -55 5.5 -98.5t21.5 -73t50 -44t91 -14.5q80 0 156 29l27 -100q-53 -23 -111.5 -34t-116.5 -11q-84 0 -135 22.5t-80 62t-39 94t-10 117.5v474h-147z" />
<glyph unicode="u" horiz-adv-x="942" d="M111 309v557h141v-526q0 -55 6 -100t24.5 -77t53.5 -49.5t92 -17.5q49 0 95 13.5t87 33.5q37 18 70 41v682h143v-635l15 -231h-136l-8 76q-53 -37 -114 -60q-93 -36 -184 -36h-5q-86 0 -140 21.5t-86 62t-43 103t-11 142.5z" />
<glyph unicode="v" horiz-adv-x="821" d="M4 866h156l243 -755h17l250 755h147l-311 -866h-199z" />
<glyph unicode="w" horiz-adv-x="1318" d="M20 866h148l194 -755h17l174 755h211l176 -755h16l199 755h143l-247 -866h-209l-176 756h-17l-176 -756h-213z" />
<glyph unicode="x" horiz-adv-x="858" d="M25 0l276 446l-274 420h161l226 -360h28l222 360h155l-268 -420l280 -446h-159l-230 383h-30l-232 -383h-155z" />
<glyph unicode="y" horiz-adv-x="825" d="M12 866h158l250 -688h16l232 688h147l-332 -921q-29 -80 -58.5 -147.5t-70.5 -118t-101 -78t-153 -27.5q-23 0 -44 2t-38 8l19 109l29 -4q14 -2 32 -2q70 0 108 24.5t60 57.5q12 16 24.5 42.5t25 56.5t23.5 61.5t19 58.5z" />
<glyph unicode="z" horiz-adv-x="833" d="M51 0v94l551 658h-528v114h704v-94l-549 -657h553v-115h-731z" />
<glyph unicode="{" horiz-adv-x="659" d="M70 426v147q63 8 103 46t40 124v349q0 86 24.5 139t66.5 82.5t99.5 40t122.5 10.5h62v-119h-29q-111 0 -156 -40t-45 -146v-305q0 -117 -37.5 -172.5t-119.5 -71.5v-16q78 -23 117.5 -74t39.5 -168v-307q0 -104 48.5 -140t152.5 -36h29v-119h-62q-66 0 -122 7t-99 34.5 t-67.5 82t-24.5 150.5v332q0 80 -40 121t-103 49z" />
<glyph unicode="|" horiz-adv-x="378" d="M127 -352v1710h125v-1710h-125z" />
<glyph unicode="}" horiz-adv-x="659" d="M72 -231h28q104 0 152.5 35.5t48.5 140.5v307q0 117 40 168t118 74v16q-82 16 -120 71.5t-38 172.5v305q0 106 -45 146t-156 40h-28v119h61q66 0 122 -10.5t98 -40t66.5 -82.5t24.5 -139v-349q0 -86 41 -123.5t103 -46.5v-147q-61 -8 -102.5 -49t-41.5 -121v-332 q0 -96 -24.5 -150.5t-67.5 -82t-99 -34.5t-120 -7h-61v119z" />
<glyph unicode="~" horiz-adv-x="872" d="M66 489q41 31 105.5 56.5t129.5 25.5q43 0 79 -12t67.5 -25.5t61.5 -25.5t64 -12q59 0 101.5 17t81.5 42l49 -90q-47 -37 -105.5 -61.5t-128.5 -24.5q-45 0 -80.5 11t-67.5 25.5t-63.5 26t-66.5 11.5q-53 0 -96 -15.5t-86 -40.5z" />
<glyph unicode="&#xa1;" horiz-adv-x="407" d="M123 709v157h160v-157h-160zM127 -379l12 946h127l15 -946h-154z" />
<glyph unicode="&#xa2;" horiz-adv-x="839" d="M66 420q0 207 88 321.5t260 139.5v159h106v-155q78 -4 144.5 -31t107.5 -72l-86 -84q-66 68 -166 74v-680q63 4 112.5 18.5t92.5 32.5l33 -94q-35 -23 -98.5 -41t-139.5 -26v-156h-106v158q-186 16 -267 127.5t-81 308.5zM211 414q0 -127 46 -211t157 -107v670 q-98 -25 -150.5 -111.5t-52.5 -240.5z" />
<glyph unicode="&#xa3;" horiz-adv-x="913" d="M84 0v104q92 66 126 159t34 206v78h-152v115h154v145q0 137 30.5 226t85 140.5t127 72t158.5 20.5q51 0 103.5 -8.5t93.5 -22.5l-39 -109q-37 12 -74 18.5t-80 6.5q-61 0 -109 -15.5t-81 -55.5t-50.5 -106.5t-17.5 -166.5v-145h389v-115h-391v-78q0 -119 -31.5 -203 t-101.5 -147h571v-119h-745z" />
<glyph unicode="&#xa4;" horiz-adv-x="903" d="M63 215l125 125q-14 25 -24 55q-18 55 -19 121q0 100 45 170l-127 129l89 90l129 -131q76 45 184 45q72 0 125 -24q18 -8 35 -19l127 129l88 -90l-127 -127q14 -25 24 -55q20 -55 21 -121q0 -98 -47 -170l129 -127l-88 -88l-131 129q-76 -45 -185 -45q-74 0 -129 22 q-16 8 -33 17l-122 -123zM276 512q0 -76 37 -129t123 -53q98 0 144.5 51t46.5 139q0 72 -38 126t-124 54q-98 0 -143.5 -52t-45.5 -136z" />
<glyph unicode="&#xa5;" horiz-adv-x="1075" d="M18 1245h175l337 -561h17l340 561h170l-348 -551h247v-100h-311l-35 -55v-66h346v-102h-346v-371h-145v371h-346v102h346v66q-10 12 -37 55h-309v100h248q-14 20 -29 43q-45 74 -97.5 156t-97.5 154.5t-79.5 127t-45.5 70.5z" />
<glyph unicode="&#xa6;" horiz-adv-x="378" d="M127 291h125v-645h-125v645zM127 715v645h125v-645h-125z" />
<glyph unicode="&#xa7;" horiz-adv-x="1009" d="M96 -346l49 113q72 -35 150 -54.5t168 -19.5q147 0 221 44t74 122q0 51 -27.5 87.5t-93.5 71.5q-35 18 -82 37t-98 38.5t-99.5 39t-87.5 41.5q-78 43 -126 101.5t-48 168.5q0 125 84 193q47 39 109 61q-39 20 -70 45q-33 25 -56.5 55.5t-34.5 71.5t-11 95q0 76 32.5 133 t91 94t136.5 55.5t168 18.5q203 0 350 -72l-49 -111q-49 23 -128 44.5t-173 21.5q-135 0 -211 -45t-76 -131q0 -53 29.5 -92t89.5 -70q35 -16 80 -33.5t93 -37t97 -40t90 -41.5q80 -41 131.5 -98t51.5 -168q0 -129 -91 -198q-49 -37 -114 -60q86 -43 133 -98q49 -57 49 -164 q0 -74 -31.5 -130t-89 -93t-135.5 -55.5t-172 -18.5q-100 0 -200.5 19.5t-172.5 58.5zM236 457q0 -53 26.5 -94t85.5 -72q37 -16 82 -34.5t94 -37.5q29 -10 56 -22q98 29 143 65q57 47 57 113q0 51 -24 90t-90 74q-37 18 -85.5 36.5t-99.5 36.5q-29 12 -59 25 q-186 -55 -186 -180z" />
<glyph unicode="&#xa8;" horiz-adv-x="991" d="M256 1071v152h143v-152h-143zM590 1071v152h141v-152h-141z" />
<glyph unicode="&#xa9;" horiz-adv-x="1503" d="M88 623q0 156 49 275.5t137 201.5t210 124t266 42q145 0 267 -43t210 -126t137 -201.5t49 -272.5q0 -152 -49 -272t-137 -202.5t-210 -125.5t-267 -43q-143 0 -265.5 43t-210.5 125.5t-137 202.5t-49 272zM203 623q0 -127 39 -226.5t110.5 -170t173 -107.5t224.5 -37 q129 0 230 38t172 108.5t108.5 170t37.5 224.5q0 127 -38.5 227t-111.5 171t-174.5 107.5t-223.5 36.5q-129 0 -231.5 -39t-172.5 -110.5t-106.5 -171t-36.5 -221.5zM424 616q0 365 346 365q66 0 124 -22.5t91 -61.5l-74 -72q-51 57 -143 58q-106 0 -160.5 -64.5 t-54.5 -206.5q0 -104 50 -174.5t155 -70.5q59 0 103 12t85 33l29 -84q-35 -23 -95.5 -39.5t-134.5 -16.5q-168 0 -244.5 92.5t-76.5 251.5z" />
<glyph unicode="&#xab;" horiz-adv-x="882" d="M29 432l311 373l94 -76l-246 -295l244 -293l-94 -80zM356 432l326 373l94 -76l-258 -295l260 -293l-98 -80z" />
<glyph unicode="&#xad;" horiz-adv-x="690" d="M111 379v125h471v-125h-471z" />
<glyph unicode="&#xae;" horiz-adv-x="978" d="M55 922q0 100 33 178t90.5 132t137 82.5t173.5 28.5t174 -28.5t138.5 -82.5t90.5 -132t32 -178t-32 -179t-90.5 -132.5t-138 -82t-174.5 -28.5q-94 0 -173.5 28.5t-137 82t-90.5 132t-33 179.5zM147 922q0 -154 90.5 -248t251.5 -94q164 0 253 94t89 248t-89 248t-253 94 q-162 0 -252 -94.5t-90 -247.5zM328 698v453h172q82 0 125 -30.5t43 -100.5q0 -96 -82 -131l96 -191h-102l-88 179h-70v-179h-94zM422 948h76q35 0 53 15.5t18 56.5q0 57 -71 57h-76v-129z" />
<glyph unicode="&#xaf;" horiz-adv-x="991" d="M231 1090v116h527v-116h-527z" />
<glyph unicode="&#xb0;" horiz-adv-x="632" d="M59 1016q0 115 71 182.5t200 67.5q63 0 109 -19.5t76 -53.5t44 -81t14 -100q0 -113 -71.5 -180.5t-200.5 -67.5t-185.5 71.5t-56.5 180.5zM176 1012q0 -55 27.5 -97.5t99.5 -42.5q82 0 118 38t36 108q0 55 -28 97t-99 42q-82 0 -118 -40t-36 -105z" />
<glyph unicode="&#xb2;" horiz-adv-x="563" d="M47 1194q106 59 219 59q100 0 165 -41t65 -143q0 -63 -41 -120.5t-101 -117.5l-137 -141h293v-88h-449v62l213 217q57 59 79 99t22 79q0 51 -33 78.5t-88 27.5q-43 0 -85 -14t-83 -37z" />
<glyph unicode="&#xb3;" horiz-adv-x="563" d="M43 668l57 71q27 -20 69 -37.5t97 -17.5q59 0 98 26.5t39 80.5q0 51 -38.5 77.5t-106.5 26.5q-37 0 -63 -6v88h43q53 0 99 22.5t46 75.5q0 47 -34 68.5t-81 21.5q-51 0 -91 -16t-68 -39l-43 76q29 23 85 46t125 23q104 0 163 -39.5t59 -128.5q0 -53 -31 -86.5t-72 -48.5 q55 -16 91 -56t36 -105q0 -53 -20.5 -91t-55 -63t-81 -36t-97.5 -11q-80 0 -135 23.5t-90 54.5z" />
<glyph unicode="&#xb4;" horiz-adv-x="991" d="M313 993l222 299h161l-241 -299h-142z" />
<glyph unicode="&#xb5;" horiz-adv-x="944" d="M111 -418v1284h141v-526q0 -55 6 -99t24.5 -77t53.5 -50.5t94 -17.5q94 0 178 45q41 23 74 45v680h143v-635l15 -231h-133l-9 74q-49 -35 -106 -58q-90 -37 -182 -36q-70 0 -117 18q-25 8 -47 22l6 -438h-141z" />
<glyph unicode="&#xb6;" horiz-adv-x="1050" d="M74 848q0 96 18.5 170t61.5 125t114.5 76.5t180.5 25.5h471v-1651l-119 -16v1548h-158v-1532l-119 -16v897h-118q-100 0 -165 28.5t-102 79t-51 118t-14 147.5z" />
<glyph unicode="&#xb7;" horiz-adv-x="344" d="M90 422v160h164v-160h-164z" />
<glyph unicode="&#xb8;" horiz-adv-x="991" d="M285 -391l34 92q31 -10 65 -17.5t69 -7.5q66 0 95.5 17.5t29.5 60.5q0 49 -44.5 68.5t-158.5 25.5l35 91q160 -4 231.5 -46.5t71.5 -138.5q0 -92 -58.5 -136t-187.5 -44q-55 0 -102.5 9t-79.5 26z" />
<glyph unicode="&#xb9;" horiz-adv-x="563" d="M80 1143l205 102h77v-643h-112v533l-133 -66z" />
<glyph unicode="&#xbb;" horiz-adv-x="882" d="M135 725l98 80l324 -371l-326 -373l-94 76l258 295zM479 137l246 295l-244 293l94 80l309 -371l-311 -373z" />
<glyph unicode="&#xbd;" horiz-adv-x="1277" d="M86 1145l205 102h78v-645h-113v535l-133 -68zM90 -61l903 1368h140l-904 -1368h-139zM795 592q51 29 106 45t111 16q100 0 164.5 -42t64.5 -144q0 -63 -40 -119.5t-99 -118.5l-139 -141h294v-88h-450v63l213 216q57 59 78.5 99t21.5 81q0 49 -32.5 76.5t-86.5 27.5 q-45 0 -86 -13t-81 -36z" />
<glyph unicode="&#xbf;" horiz-adv-x="774" d="M78 -101q0 66 23.5 117t57 96t74.5 85t75 85t57.5 96.5t23.5 116.5v72h137v-88q0 -111 -46 -187.5t-101.5 -138t-101.5 -118t-46 -123.5q0 -82 55.5 -135.5t161.5 -53.5q78 0 142.5 24.5t111.5 53.5l49 -111q-59 -37 -141 -63.5t-180 -26.5q-160 0 -256 77t-96 222z M375 708v158h159v-158h-159z" />
<glyph unicode="&#xc0;" horiz-adv-x="1157" d="M14 0l455 1245h213l461 -1245h-160l-133 365h-549l-129 -365h-158zM289 1671h162l221 -299h-141zM342 487h465l-225 639h-17z" />
<glyph unicode="&#xc1;" horiz-adv-x="1157" d="M14 0l455 1245h213l461 -1245h-160l-133 365h-549l-129 -365h-158zM342 487h465l-225 639h-17zM477 1372l222 299h161l-241 -299h-142z" />
<glyph unicode="&#xc2;" horiz-adv-x="1157" d="M14 0l455 1245h213l461 -1245h-160l-133 365h-549l-129 -365h-158zM275 1372l202 299h193l205 -299h-136l-155 219h-19l-157 -219h-133zM342 487h465l-225 639h-17z" />
<glyph unicode="&#xc3;" horiz-adv-x="1157" d="M14 0l455 1245h213l461 -1245h-160l-133 365h-549l-129 -365h-158zM268 1538q35 31 84.5 53.5t102.5 22.5q39 0 68.5 -9t56 -21.5t52.5 -21.5t56 -9q41 0 76 14t68 35l45 -90q-39 -33 -86 -53.5t-105 -20.5q-37 0 -67.5 9t-57 21.5t-52 21.5t-56.5 9q-39 0 -73 -15 t-64 -36zM342 487h465l-225 639h-17z" />
<glyph unicode="&#xc4;" horiz-adv-x="1157" d="M14 0l455 1245h213l461 -1245h-160l-133 365h-549l-129 -365h-158zM334 1450v152h143v-152h-143zM342 487h465l-225 639h-17zM668 1450v152h141v-152h-141z" />
<glyph unicode="&#xc5;" horiz-adv-x="1157" d="M14 0l455 1245h213l461 -1245h-160l-133 365h-549l-129 -365h-158zM342 487h465l-225 639h-17zM385 1523q0 86 49 132.5t148 46.5q100 0 140 -51.5t40 -129.5q0 -86 -50.5 -131t-146.5 -45q-100 0 -140 50.5t-40 127.5zM485 1521q0 -39 17.5 -61.5t64.5 -22.5 q51 0 71.5 20.5t20.5 67.5q0 37 -16 60.5t-66 23.5q-49 0 -70.5 -21.5t-21.5 -66.5z" />
<glyph unicode="&#xc6;" horiz-adv-x="1691" d="M-23 0l756 1245h846v-121h-608l22 -422h561v-120h-555l23 -461h571v-121h-712l-19 365h-508l-217 -365h-160zM426 487h430l-31 637h-16z" />
<glyph unicode="&#xc7;" horiz-adv-x="1103" d="M80 623q0 168 39 289.5t111.5 199.5t176 116t234.5 38q121 0 223.5 -40t163.5 -116l-88 -86q-53 57 -121.5 89t-173.5 32q-217 0 -315.5 -138.5t-98.5 -402.5q0 -240 92.5 -370t299.5 -130q125 0 214 24t154 50l37 -112q-70 -33 -180.5 -59.5t-231.5 -26.5 q-283 2 -409.5 162.5t-126.5 480.5zM387 -391l34 92q31 -10 65 -17.5t69 -7.5q66 0 95.5 17.5t29.5 60.5q0 49 -44.5 68.5t-158.5 25.5l35 91q160 -4 231.5 -46.5t71.5 -138.5q0 -92 -58.5 -136t-187.5 -44q-55 0 -102.5 9t-79.5 26z" />
<glyph unicode="&#xc8;" horiz-adv-x="997" d="M137 0v1245h742v-121h-596v-422h575v-120h-575v-461h616v-121h-762zM234 1671h162l221 -299h-141z" />
<glyph unicode="&#xc9;" horiz-adv-x="997" d="M137 0v1245h742v-121h-596v-422h575v-120h-575v-461h616v-121h-762zM407 1372l222 299h161l-241 -299h-142z" />
<glyph unicode="&#xca;" horiz-adv-x="997" d="M137 0v1245h742v-121h-596v-422h575v-120h-575v-461h616v-121h-762zM205 1372l202 299h193l205 -299h-136l-155 219h-19l-157 -219h-133z" />
<glyph unicode="&#xcb;" horiz-adv-x="997" d="M137 0v1245h742v-121h-596v-422h575v-120h-575v-461h616v-121h-762zM264 1440v152h143v-152h-143zM598 1440v152h141v-152h-141z" />
<glyph unicode="&#xcc;" horiz-adv-x="419" d="M-61 1671h162l221 -299h-141zM137 0v1245h146v-1245h-146z" />
<glyph unicode="&#xcd;" horiz-adv-x="419" d="M112 1372l222 299h161l-241 -299h-142zM137 0v1245h146v-1245h-146z" />
<glyph unicode="&#xce;" horiz-adv-x="419" d="M-88 1372l202 299h193l205 -299h-136l-155 219h-19l-157 -219h-133zM137 0v1245h146v-1245h-146z" />
<glyph unicode="&#xcf;" horiz-adv-x="419" d="M-25 1440v152h143v-152h-143zM137 0v1245h146v-1245h-146zM309 1440v152h141v-152h-141z" />
<glyph unicode="&#xd0;" horiz-adv-x="1191" d="M29 575v121h567v-121h-567zM154 0v1245h352q145 0 258 -33.5t189.5 -108.5t116.5 -195t40 -292q0 -176 -48 -294.5t-135 -190.5t-207 -101.5t-263 -29.5h-303zM299 121h154q121 0 215 23.5t158.5 83t97 159.5t32.5 254q0 252 -112.5 367.5t-335.5 115.5h-209v-1003z" />
<glyph unicode="&#xd1;" horiz-adv-x="1271" d="M137 0v1245h258l578 -1126h16v1126h146v-1245h-258l-578 1126h-16v-1126h-146zM340 1538q35 31 84.5 53.5t102.5 22.5q39 0 68.5 -9t56 -21.5t52.5 -21.5t56 -9q41 0 76 14t68 35l45 -90q-39 -33 -86 -53.5t-105 -20.5q-37 0 -67.5 9t-57 21.5t-52 21.5t-56.5 9 q-39 0 -73 -15t-64 -36z" />
<glyph unicode="&#xd2;" horiz-adv-x="1208" d="M80 629q0 326 133 481.5t414 155.5q139 0 235 -44t155.5 -128t85 -204t25.5 -274q0 -324 -134 -480t-414 -156q-141 0 -236.5 44t-154 128t-84 204.5t-25.5 272.5zM229 608q0 -106 15.5 -199.5t54.5 -162t106.5 -107.5t169.5 -39q117 0 194 35t123 102.5t65.5 169 t19.5 234.5q0 104 -15.5 196.5t-54.5 161t-106.5 108.5t-171.5 40q-115 0 -191 -35t-123 -102.5t-66.5 -169t-19.5 -232.5zM305 1671h162l221 -299h-141z" />
<glyph unicode="&#xd3;" horiz-adv-x="1208" d="M80 629q0 326 133 481.5t414 155.5q139 0 235 -44t155.5 -128t85 -204t25.5 -274q0 -324 -134 -480t-414 -156q-141 0 -236.5 44t-154 128t-84 204.5t-25.5 272.5zM229 608q0 -106 15.5 -199.5t54.5 -162t106.5 -107.5t169.5 -39q117 0 194 35t123 102.5t65.5 169 t19.5 234.5q0 104 -15.5 196.5t-54.5 161t-106.5 108.5t-171.5 40q-115 0 -191 -35t-123 -102.5t-66.5 -169t-19.5 -232.5zM522 1372l222 299h161l-241 -299h-142z" />
<glyph unicode="&#xd4;" horiz-adv-x="1208" d="M80 629q0 326 133 481.5t414 155.5q139 0 235 -44t155.5 -128t85 -204t25.5 -274q0 -324 -134 -480t-414 -156q-141 0 -236.5 44t-154 128t-84 204.5t-25.5 272.5zM229 608q0 -106 15.5 -199.5t54.5 -162t106.5 -107.5t169.5 -39q117 0 194 35t123 102.5t65.5 169 t19.5 234.5q0 104 -15.5 196.5t-54.5 161t-106.5 108.5t-171.5 40q-115 0 -191 -35t-123 -102.5t-66.5 -169t-19.5 -232.5zM316 1372l202 299h193l205 -299h-136l-155 219h-19l-157 -219h-133z" />
<glyph unicode="&#xd5;" horiz-adv-x="1208" d="M80 629q0 326 133 481.5t414 155.5q139 0 235 -44t155.5 -128t85 -204t25.5 -274q0 -324 -134 -480t-414 -156q-141 0 -236.5 44t-154 128t-84 204.5t-25.5 272.5zM229 608q0 -106 15.5 -199.5t54.5 -162t106.5 -107.5t169.5 -39q117 0 194 35t123 102.5t65.5 169 t19.5 234.5q0 104 -15.5 196.5t-54.5 161t-106.5 108.5t-171.5 40q-115 0 -191 -35t-123 -102.5t-66.5 -169t-19.5 -232.5zM313 1538q35 31 84.5 53.5t102.5 22.5q39 0 68.5 -9t56 -21.5t52.5 -21.5t56 -9q41 0 76 14t68 35l45 -90q-39 -33 -86 -53.5t-105 -20.5 q-37 0 -67.5 9t-57 21.5t-52 21.5t-56.5 9q-39 0 -73 -15t-64 -36z" />
<glyph unicode="&#xd6;" horiz-adv-x="1208" d="M80 629q0 326 133 481.5t414 155.5q139 0 235 -44t155.5 -128t85 -204t25.5 -274q0 -324 -134 -480t-414 -156q-141 0 -236.5 44t-154 128t-84 204.5t-25.5 272.5zM229 608q0 -106 15.5 -199.5t54.5 -162t106.5 -107.5t169.5 -39q117 0 194 35t123 102.5t65.5 169 t19.5 234.5q0 104 -15.5 196.5t-54.5 161t-106.5 108.5t-171.5 40q-115 0 -191 -35t-123 -102.5t-66.5 -169t-19.5 -232.5zM375 1440v152h143v-152h-143zM709 1440v152h141v-152h-141z" />
<glyph unicode="&#xd7;" d="M145 207l295 295l-295 297l91 92l296 -297l297 297l91 -92l-297 -297l297 -295l-91 -92l-297 297l-296 -297z" />
<glyph unicode="&#xd8;" horiz-adv-x="1208" d="M72 14l110 148q-53 80 -78 194q-24 121 -24 273q0 326 133 481.5t414 155.5q139 0 235 -45q43 -20 80 -50l96 127l92 -63l-110 -145q57 -84 82 -201q27 -119 26 -273q0 -324 -134 -481.5t-414 -157.5q-141 0 -238 46q-45 20 -84 51l-94 -125zM227 608q0 -109 15 -202 q12 -66 32 -121l588 780q-26 27 -59 45q-68 41 -174 41q-115 0 -192 -35t-123 -104.5t-66.5 -171t-20.5 -232.5zM340 182q29 -29 63 -49q68 -39 172 -39q117 0 195 35t125 104.5t66.5 172t19.5 235.5q0 104 -14 197q-12 72 -37 129z" />
<glyph unicode="&#xd9;" horiz-adv-x="1173" d="M125 477v768h145v-799q0 -164 66.5 -256t232.5 -92q94 0 158 20.5t102.5 66.5t56 118t17.5 176v766h146v-780q0 -258 -120 -371.5t-358 -113.5q-231 0 -338.5 117.5t-107.5 379.5zM311 1671h162l221 -299h-141z" />
<glyph unicode="&#xda;" horiz-adv-x="1173" d="M125 477v768h145v-799q0 -164 66.5 -256t232.5 -92q94 0 158 20.5t102.5 66.5t56 118t17.5 176v766h146v-780q0 -258 -120 -371.5t-358 -113.5q-231 0 -338.5 117.5t-107.5 379.5zM475 1372l222 299h161l-241 -299h-142z" />
<glyph unicode="&#xdb;" horiz-adv-x="1173" d="M125 477v768h145v-799q0 -164 66.5 -256t232.5 -92q94 0 158 20.5t102.5 66.5t56 118t17.5 176v766h146v-780q0 -258 -120 -371.5t-358 -113.5q-231 0 -338.5 117.5t-107.5 379.5zM283 1372l202 299h193l205 -299h-136l-155 219h-19l-157 -219h-133z" />
<glyph unicode="&#xdc;" horiz-adv-x="1173" d="M125 477v768h145v-799q0 -164 66.5 -256t232.5 -92q94 0 158 20.5t102.5 66.5t56 118t17.5 176v766h146v-780q0 -258 -120 -371.5t-358 -113.5q-231 0 -338.5 117.5t-107.5 379.5zM348 1440v152h143v-152h-143zM682 1440v152h141v-152h-141z" />
<glyph unicode="&#xdd;" horiz-adv-x="1034" d="M-2 1245h174l338 -561h16l340 561h170l-446 -706v-539h-146v539zM426 1372l222 299h161l-241 -299h-142z" />
<glyph unicode="&#xde;" horiz-adv-x="1034" d="M131 0v1245h143v-248h275q207 0 312.5 -91t105.5 -275q0 -90 -29 -161t-81 -120t-123.5 -74.5t-160.5 -25.5h-299v-250h-143zM274 371h279q121 0 192.5 62.5t71.5 197.5q0 131 -74.5 188.5t-189.5 57.5h-279v-506z" />
<glyph unicode="&#xdf;" horiz-adv-x="1003" d="M119 0v829q0 121 29.5 208t85 144.5t132 84t169.5 26.5q63 0 121.5 -15t104.5 -49t73.5 -85t27.5 -121q0 -47 -14 -83t-42 -67.5t-66 -60.5t-85 -59q-43 -31 -74.5 -62t-31.5 -69q0 -41 23.5 -62.5t70.5 -44.5q4 -2 23.5 -10t42 -18.5t42 -19.5t23.5 -11 q76 -35 128 -88.5t52 -143.5q0 -123 -81.5 -182t-229.5 -59q-78 0 -149.5 15t-122.5 40l43 108q35 -14 97 -33.5t132 -19.5q78 0 125 27.5t47 87.5q0 53 -28.5 82.5t-96.5 60.5q-4 2 -21.5 9.5t-38 16.5t-39 16t-20.5 9q-76 33 -118.5 78t-42.5 123q0 70 37.5 125t136.5 121 q72 45 101.5 83t29.5 91q0 82 -56.5 118t-132.5 36q-68 0 -117 -26t-82.5 -70t-50 -105.5t-16.5 -132.5v-842h-141z" />
<glyph unicode="&#xe0;" horiz-adv-x="874" d="M66 246q0 80 27.5 130t76.5 79.5t116.5 41t147.5 11.5q53 0 93 -2t91 -6v45q0 63 -9 107t-32.5 71t-64.5 39t-104 12q-74 0 -148 -21.5t-121 -43.5l-35 100q66 31 154 54.5t188 23.5q90 0 150.5 -18.5t97.5 -60.5t52.5 -109.5t15.5 -168.5v-313q0 -66 19.5 -90.5 t62.5 -24.5v-106q-12 -4 -25 -4h-28q-66 0 -100 25.5t-52 72.5q-47 -43 -123 -76.5t-176 -33.5q-78 0 -131 20t-85 56t-45 84t-13 106zM160 1292h162l221 -299h-141zM215 252q0 -84 38 -123t130 -39q63 0 125.5 27.5t109.5 66.5v207q-49 4 -95 7t-101 3q-117 0 -162 -36.5 t-45 -112.5z" />
<glyph unicode="&#xe1;" horiz-adv-x="874" d="M66 246q0 80 27.5 130t76.5 79.5t116.5 41t147.5 11.5q53 0 93 -2t91 -6v45q0 63 -9 107t-32.5 71t-64.5 39t-104 12q-74 0 -148 -21.5t-121 -43.5l-35 100q66 31 154 54.5t188 23.5q90 0 150.5 -18.5t97.5 -60.5t52.5 -109.5t15.5 -168.5v-313q0 -66 19.5 -90.5 t62.5 -24.5v-106q-12 -4 -25 -4h-28q-66 0 -100 25.5t-52 72.5q-47 -43 -123 -76.5t-176 -33.5q-78 0 -131 20t-85 56t-45 84t-13 106zM215 252q0 -84 38 -123t130 -39q63 0 125.5 27.5t109.5 66.5v207q-49 4 -95 7t-101 3q-117 0 -162 -36.5t-45 -112.5zM301 993l222 299 h161l-241 -299h-142z" />
<glyph unicode="&#xe2;" horiz-adv-x="874" d="M66 246q0 80 27.5 130t76.5 79.5t116.5 41t147.5 11.5q53 0 93 -2t91 -6v45q0 63 -9 107t-32.5 71t-64.5 39t-104 12q-74 0 -148 -21.5t-121 -43.5l-35 100q66 31 154 54.5t188 23.5q90 0 150.5 -18.5t97.5 -60.5t52.5 -109.5t15.5 -168.5v-313q0 -66 19.5 -90.5 t62.5 -24.5v-106q-12 -4 -25 -4h-28q-66 0 -100 25.5t-52 72.5q-47 -43 -123 -76.5t-176 -33.5q-78 0 -131 20t-85 56t-45 84t-13 106zM123 993l202 299h193l205 -299h-136l-155 219h-19l-157 -219h-133zM215 252q0 -84 38 -123t130 -39q63 0 125.5 27.5t109.5 66.5v207 q-49 4 -95 7t-101 3q-117 0 -162 -36.5t-45 -112.5z" />
<glyph unicode="&#xe3;" horiz-adv-x="874" d="M66 246q0 80 27.5 130t76.5 79.5t116.5 41t147.5 11.5q53 0 93 -2t91 -6v45q0 63 -9 107t-32.5 71t-64.5 39t-104 12q-74 0 -148 -21.5t-121 -43.5l-35 100q66 31 154 54.5t188 23.5q90 0 150.5 -18.5t97.5 -60.5t52.5 -109.5t15.5 -168.5v-313q0 -66 19.5 -90.5 t62.5 -24.5v-106q-12 -4 -25 -4h-28q-66 0 -100 25.5t-52 72.5q-47 -43 -123 -76.5t-176 -33.5q-78 0 -131 20t-85 56t-45 84t-13 106zM104 1159q35 31 84.5 53.5t102.5 22.5q39 0 68.5 -9t56 -21.5t52.5 -21.5t56 -9q41 0 76 14t68 35l45 -90q-39 -33 -86 -53.5t-105 -20.5 q-37 0 -67.5 9t-57 21.5t-52 21.5t-56.5 9q-39 0 -73 -15t-64 -36zM215 252q0 -84 38 -123t130 -39q63 0 125.5 27.5t109.5 66.5v207q-49 4 -95 7t-101 3q-117 0 -162 -36.5t-45 -112.5z" />
<glyph unicode="&#xe4;" horiz-adv-x="874" d="M66 246q0 80 27.5 130t76.5 79.5t116.5 41t147.5 11.5q53 0 93 -2t91 -6v45q0 63 -9 107t-32.5 71t-64.5 39t-104 12q-74 0 -148 -21.5t-121 -43.5l-35 100q66 31 154 54.5t188 23.5q90 0 150.5 -18.5t97.5 -60.5t52.5 -109.5t15.5 -168.5v-313q0 -66 19.5 -90.5 t62.5 -24.5v-106q-12 -4 -25 -4h-28q-66 0 -100 25.5t-52 72.5q-47 -43 -123 -76.5t-176 -33.5q-78 0 -131 20t-85 56t-45 84t-13 106zM184 1071v152h143v-152h-143zM215 252q0 -84 38 -123t130 -39q63 0 125.5 27.5t109.5 66.5v207q-49 4 -95 7t-101 3q-117 0 -162 -36.5 t-45 -112.5zM518 1071v152h141v-152h-141z" />
<glyph unicode="&#xe5;" horiz-adv-x="874" d="M66 246q0 80 27.5 130t76.5 79.5t116.5 41t147.5 11.5q53 0 93 -2t91 -6v45q0 63 -9 107t-32.5 71t-64.5 39t-104 12q-74 0 -148 -21.5t-121 -43.5l-35 100q66 31 154 54.5t188 23.5q90 0 150.5 -18.5t97.5 -60.5t52.5 -109.5t15.5 -168.5v-313q0 -66 19.5 -90.5 t62.5 -24.5v-106q-12 -4 -25 -4h-28q-66 0 -100 25.5t-52 72.5q-47 -43 -123 -76.5t-176 -33.5q-78 0 -131 20t-85 56t-45 84t-13 106zM215 252q0 -84 38 -123t130 -39q63 0 125.5 27.5t109.5 66.5v207q-49 4 -95 7t-101 3q-117 0 -162 -36.5t-45 -112.5zM240 1167 q0 86 49 132.5t148 46.5q100 0 140 -51.5t40 -129.5q0 -86 -50.5 -131t-146.5 -45q-100 0 -140 50.5t-40 127.5zM340 1165q0 -39 17.5 -61.5t64.5 -22.5q51 0 71.5 20.5t20.5 67.5q0 37 -16 60.5t-66 23.5q-49 0 -70.5 -21.5t-21.5 -66.5z" />
<glyph unicode="&#xe6;" horiz-adv-x="1441" d="M70 246q0 76 27.5 126t76.5 78.5t116.5 40t147.5 11.5h187v41q0 63 -9.5 108t-34 72t-65.5 39t-104 12q-76 0 -150 -21.5t-121 -43.5l-35 100q68 31 156 54.5t189 23.5q111 0 173 -30t95 -101q92 131 301 131q106 0 174 -32t106.5 -88t53 -134t14.5 -168v-68h-600 q2 -88 20.5 -146t52 -94t85 -50.5t118.5 -14.5q92 0 162 23.5t113 46.5l39 -99q-23 -14 -59.5 -28.5t-82 -26.5t-95.5 -20t-99 -8q-229 0 -317 122q-53 -43 -142.5 -82.5t-212.5 -39.5q-76 0 -129 20t-87 56t-49 85t-15 105zM217 254q0 -84 39 -124t133 -40q70 0 138.5 32 t125.5 77q-14 41 -19 90t-9 108h-201q-117 0 -162 -37.5t-45 -105.5zM770 502h453q0 156 -54.5 216t-150.5 60q-131 0 -185.5 -67.5t-62.5 -208.5z" />
<glyph unicode="&#xe7;" horiz-adv-x="813" d="M74 420q0 231 111.5 349t324.5 118q82 0 153.5 -28t112.5 -75l-86 -84q-33 35 -79 55.5t-103 20.5q-141 0 -215 -88t-74 -274q0 -72 14.5 -131.5t47 -102.5t85 -66.5t126.5 -23.5q76 0 133 16.5t106 38.5l33 -96q-41 -25 -119 -47t-166 -22q-217 0 -311 114.5t-94 325.5z M244 -391l34 92q31 -10 65 -17.5t69 -7.5q66 0 95.5 17.5t29.5 60.5q0 49 -44.5 68.5t-158.5 25.5l35 91q160 -4 231.5 -46.5t71.5 -138.5q0 -92 -58.5 -136t-187.5 -44q-55 0 -102.5 9t-79.5 26z" />
<glyph unicode="&#xe8;" horiz-adv-x="892" d="M74 438q0 229 98 339t299 110q106 0 175 -32t108 -88t53 -134t14 -168v-68h-600q0 -74 12 -125q16 -66 50 -105.5t87.5 -57t125.5 -17.5q92 0 161.5 23.5t112.5 46.5l37 -99q-23 -14 -58.5 -28.5t-80.5 -26.5t-94.5 -20t-98.5 -8q-113 0 -189.5 28.5t-123.5 85 t-67.5 142.5t-20.5 202zM221 504h451q0 154 -54.5 214t-146.5 60q-72 0 -120 -20.5t-77.5 -63.5t-42.5 -108q-6 -37 -10 -82zM223 1292h162l221 -299h-141z" />
<glyph unicode="&#xe9;" horiz-adv-x="892" d="M74 438q0 229 98 339t299 110q106 0 175 -32t108 -88t53 -134t14 -168v-68h-600q0 -74 12 -125q16 -66 50 -105.5t87.5 -57t125.5 -17.5q92 0 161.5 23.5t112.5 46.5l37 -99q-23 -14 -58.5 -28.5t-80.5 -26.5t-94.5 -20t-98.5 -8q-113 0 -189.5 28.5t-123.5 85 t-67.5 142.5t-20.5 202zM221 504h451q0 154 -54.5 214t-146.5 60q-72 0 -120 -20.5t-77.5 -63.5t-42.5 -108q-6 -37 -10 -82zM350 993l222 299h161l-241 -299h-142z" />
<glyph unicode="&#xea;" horiz-adv-x="892" d="M74 438q0 229 98 339t299 110q106 0 175 -32t108 -88t53 -134t14 -168v-68h-600q0 -74 12 -125q16 -66 50 -105.5t87.5 -57t125.5 -17.5q92 0 161.5 23.5t112.5 46.5l37 -99q-23 -14 -58.5 -28.5t-80.5 -26.5t-94.5 -20t-98.5 -8q-113 0 -189.5 28.5t-123.5 85 t-67.5 142.5t-20.5 202zM175 993l202 299h193l205 -299h-136l-155 219h-19l-157 -219h-133zM221 504h451q0 154 -54.5 214t-146.5 60q-72 0 -120 -20.5t-77.5 -63.5t-42.5 -108q-6 -37 -10 -82z" />
<glyph unicode="&#xeb;" horiz-adv-x="892" d="M74 438q0 229 98 339t299 110q106 0 175 -32t108 -88t53 -134t14 -168v-68h-600q0 -74 12 -125q16 -66 50 -105.5t87.5 -57t125.5 -17.5q92 0 161.5 23.5t112.5 46.5l37 -99q-23 -14 -58.5 -28.5t-80.5 -26.5t-94.5 -20t-98.5 -8q-113 0 -189.5 28.5t-123.5 85 t-67.5 142.5t-20.5 202zM221 504h451q0 154 -54.5 214t-146.5 60q-72 0 -120 -20.5t-77.5 -63.5t-42.5 -108q-6 -37 -10 -82zM221 1071v152h143v-152h-143zM555 1071v152h141v-152h-141z" />
<glyph unicode="&#xec;" horiz-adv-x="382" d="M-41 1292h162l221 -299h-141zM119 0v866h143v-866h-143z" />
<glyph unicode="&#xed;" horiz-adv-x="382" d="M47 993l222 299h161l-241 -299h-142zM119 0v866h143v-866h-143z" />
<glyph unicode="&#xee;" horiz-adv-x="382" d="M-78 995l174 299h191l176 -299h-131l-131 222h-19l-133 -222h-127zM119 0v866h143v-866h-143z" />
<glyph unicode="&#xef;" horiz-adv-x="382" d="M-23 1071v152h134v-152h-134zM119 0v866h143v-866h-143zM264 1071v152h133v-152h-133z" />
<glyph unicode="&#xf0;" horiz-adv-x="956" d="M74 436q0 223 103.5 337t295.5 114q98 0 178 -37q27 -12 54 -27q-23 82 -68 148q-45 68 -121 119l-260 -134l-43 82l203 105q-96 39 -236 59l21 109q160 -25 284 -76q31 -12 58 -27l207 105l43 -82l-158 -82q35 -27 65 -59q88 -92 135.5 -234.5t47.5 -349.5 q0 -270 -96.5 -399.5t-309.5 -129.5q-111 0 -187.5 32t-124.5 90.5t-69.5 143.5t-21.5 193zM219 422q0 -70 13.5 -131.5t43 -106.5t78.5 -70.5t123 -25.5q80 0 130 28.5t80 81t41 126t11 163.5q0 109 -12 201q-37 27 -82 47q-78 37 -160 37q-145 0 -205.5 -90t-60.5 -260z " />
<glyph unicode="&#xf1;" horiz-adv-x="944" d="M104 866h134l6 -78q53 37 116 62q98 37 191 37q86 0 141.5 -21.5t87 -62.5t44 -103.5t12.5 -142.5v-557h-144v526q0 55 -6 99.5t-24.5 77t-54.5 50t-93 17.5q-49 0 -95 -13.5t-89 -35.5q-37 -18 -68 -41v-680h-143v635zM178 1159q35 31 84.5 53.5t102.5 22.5 q39 0 68.5 -9t56 -21.5t52.5 -21.5t56 -9q41 0 76 14t68 35l45 -90q-39 -33 -86 -53.5t-105 -20.5q-37 0 -67.5 9t-57 21.5t-52 21.5t-56.5 9q-39 0 -73 -15t-64 -36z" />
<glyph unicode="&#xf2;" horiz-adv-x="956" d="M74 436q0 229 102.5 340t321.5 111q111 0 184.5 -32t117.5 -90t63.5 -144t19.5 -193q0 -229 -103.5 -338.5t-322.5 -109.5q-111 0 -184.5 31.5t-117.5 90t-62.5 143.5t-18.5 191zM219 422q0 -70 10.5 -130.5t37 -105.5t72.5 -70.5t118 -25.5q160 0 219 89t59 265 q0 68 -10 129.5t-36.5 106.5t-73 71.5t-117.5 26.5q-160 0 -219.5 -91t-59.5 -265zM225 1292h162l221 -299h-141z" />
<glyph unicode="&#xf3;" horiz-adv-x="956" d="M74 436q0 229 102.5 340t321.5 111q111 0 184.5 -32t117.5 -90t63.5 -144t19.5 -193q0 -229 -103.5 -338.5t-322.5 -109.5q-111 0 -184.5 31.5t-117.5 90t-62.5 143.5t-18.5 191zM219 422q0 -70 10.5 -130.5t37 -105.5t72.5 -70.5t118 -25.5q160 0 219 89t59 265 q0 68 -10 129.5t-36.5 106.5t-73 71.5t-117.5 26.5q-160 0 -219.5 -91t-59.5 -265zM381 993l222 299h161l-241 -299h-142z" />
<glyph unicode="&#xf4;" horiz-adv-x="956" d="M74 436q0 229 102.5 340t321.5 111q111 0 184.5 -32t117.5 -90t63.5 -144t19.5 -193q0 -229 -103.5 -338.5t-322.5 -109.5q-111 0 -184.5 31.5t-117.5 90t-62.5 143.5t-18.5 191zM183 993l202 299h193l205 -299h-136l-155 219h-19l-157 -219h-133zM219 422 q0 -70 10.5 -130.5t37 -105.5t72.5 -70.5t118 -25.5q160 0 219 89t59 265q0 68 -10 129.5t-36.5 106.5t-73 71.5t-117.5 26.5q-160 0 -219.5 -91t-59.5 -265z" />
<glyph unicode="&#xf5;" horiz-adv-x="956" d="M74 436q0 229 102.5 340t321.5 111q111 0 184.5 -32t117.5 -90t63.5 -144t19.5 -193q0 -229 -103.5 -338.5t-322.5 -109.5q-111 0 -184.5 31.5t-117.5 90t-62.5 143.5t-18.5 191zM184 1159q35 31 84.5 53.5t102.5 22.5q39 0 68.5 -9t56 -21.5t52.5 -21.5t56 -9 q41 0 76 14t68 35l45 -90q-39 -33 -86 -53.5t-105 -20.5q-37 0 -67.5 9t-57 21.5t-52 21.5t-56.5 9q-39 0 -73 -15t-64 -36zM219 422q0 -70 10.5 -130.5t37 -105.5t72.5 -70.5t118 -25.5q160 0 219 89t59 265q0 68 -10 129.5t-36.5 106.5t-73 71.5t-117.5 26.5 q-160 0 -219.5 -91t-59.5 -265z" />
<glyph unicode="&#xf6;" horiz-adv-x="956" d="M74 436q0 229 102.5 340t321.5 111q111 0 184.5 -32t117.5 -90t63.5 -144t19.5 -193q0 -229 -103.5 -338.5t-322.5 -109.5q-111 0 -184.5 31.5t-117.5 90t-62.5 143.5t-18.5 191zM219 422q0 -70 10.5 -130.5t37 -105.5t72.5 -70.5t118 -25.5q160 0 219 89t59 265 q0 68 -10 129.5t-36.5 106.5t-73 71.5t-117.5 26.5q-160 0 -219.5 -91t-59.5 -265zM244 1071v152h143v-152h-143zM578 1071v152h141v-152h-141z" />
<glyph unicode="&#xf7;" horiz-adv-x="991" d="M113 442v119h764v-119h-764zM416 164v160h159v-160h-159zM416 680v160h159v-160h-159z" />
<glyph unicode="&#xf8;" horiz-adv-x="956" d="M59 27l80 94q-37 59 -51 138t-14 177q0 229 102.5 340t321.5 111q145 0 229 -62l76 90l92 -73l-82 -99q37 -59 53.5 -138t16.5 -177q0 -229 -103.5 -340t-322.5 -111q-78 0 -134.5 15.5t-99.5 44.5l-71 -88zM215 422q0 -53 6 -98t23 -82l409 489q-29 23 -65.5 37 t-89.5 14q-80 0 -134.5 -23.5t-87 -69.5t-47 -113.5t-14.5 -153.5zM299 135q29 -25 67 -38t91 -13q160 0 221 91t61 269q0 51 -6 97.5t-22 85.5z" />
<glyph unicode="&#xf9;" horiz-adv-x="942" d="M111 309v557h141v-526q0 -55 6 -100t24.5 -77t53.5 -49.5t92 -17.5q49 0 95 13.5t87 33.5q37 18 70 41v682h143v-635l15 -231h-136l-8 76q-53 -37 -114 -60q-96 -37 -189 -36q-86 0 -140 21.5t-86 62t-43 103t-11 142.5zM180 1292h162l221 -299h-141z" />
<glyph unicode="&#xfa;" horiz-adv-x="942" d="M111 309v557h141v-526q0 -55 6 -100t24.5 -77t53.5 -49.5t92 -17.5q49 0 95 13.5t87 33.5q37 18 70 41v682h143v-635l15 -231h-136l-8 76q-53 -37 -114 -60q-96 -37 -189 -36q-86 0 -140 21.5t-86 62t-43 103t-11 142.5zM401 993l222 299h161l-241 -299h-142z" />
<glyph unicode="&#xfb;" horiz-adv-x="942" d="M111 309v557h141v-526q0 -55 6 -100t24.5 -77t53.5 -49.5t92 -17.5q49 0 95 13.5t87 33.5q37 18 70 41v682h143v-635l15 -231h-136l-8 76q-53 -37 -114 -60q-96 -37 -189 -36q-86 0 -140 21.5t-86 62t-43 103t-11 142.5zM170 993l202 299h193l205 -299h-136l-155 219h-19 l-157 -219h-133z" />
<glyph unicode="&#xfc;" horiz-adv-x="942" d="M111 309v557h141v-526q0 -55 6 -100t24.5 -77t53.5 -49.5t92 -17.5q49 0 95 13.5t87 33.5q37 18 70 41v682h143v-635l15 -231h-136l-8 76q-53 -37 -114 -60q-96 -37 -189 -36q-86 0 -140 21.5t-86 62t-43 103t-11 142.5zM229 1071v152h143v-152h-143zM563 1071v152h141 v-152h-141z" />
<glyph unicode="&#xfd;" horiz-adv-x="825" d="M12 866h158l250 -688h16l232 688h147l-332 -921q-29 -80 -58.5 -147.5t-70.5 -118t-101 -78t-153 -27.5q-23 0 -44 2t-38 8l19 109l29 -4q14 -2 32 -2q70 0 108 24.5t60 57.5q12 16 24.5 42.5t25 56.5t23.5 61.5t19 58.5zM356 993l222 299h161l-241 -299h-142z" />
<glyph unicode="&#xfe;" horiz-adv-x="940" d="M119 0v1288l143 21v-496q47 31 94 47q70 27 156 27q184 0 270 -115t86 -326q0 -102 -22.5 -188t-72.5 -147.5t-128.5 -96t-189.5 -34.5q-70 0 -121 16q-45 12 -96 39l-13 -35h-106zM119 406l143 2v-811l-143 -19v828zM262 143q80 -53 178 -53q135 0 207 83t72 273 q0 66 -11.5 125.5t-40 104.5t-75.5 71.5t-121 26.5q-78 0 -137 -33q-37 -20 -72 -49v-549z" />
<glyph unicode="&#xff;" horiz-adv-x="825" d="M12 866h158l250 -688h16l232 688h147l-332 -921q-29 -80 -58.5 -147.5t-70.5 -118t-101 -78t-153 -27.5q-23 0 -44 2t-38 8l19 109l29 -4q14 -2 32 -2q70 0 108 24.5t60 57.5q12 16 24.5 42.5t25 56.5t23.5 61.5t19 58.5zM178 1071v152h143v-152h-143zM512 1071v152h141 v-152h-141z" />
<glyph unicode="&#x152;" horiz-adv-x="1835" d="M80 629q0 326 133 481.5t414 155.5q137 0 230 -44t149.5 -127t80 -203t23.5 -274q0 -324 -127 -481t-403 -157q-141 0 -236.5 44t-154 128t-84 204.5t-25.5 272.5zM229 608q0 -106 15.5 -199.5t54.5 -162t106.5 -107.5t169.5 -39q117 0 194 35t123 102.5t65.5 169 t19.5 234.5q0 104 -15.5 196.5t-54.5 161t-106.5 108.5t-171.5 40q-115 0 -191 -35t-123 -102.5t-66.5 -169t-19.5 -232.5z" />
<glyph unicode="&#x153;" horiz-adv-x="1556" d="M74 436q0 229 102.5 340t321.5 111q174 0 270 -107q23 -27 41 -61q16 31 35 53q94 115 289 115q106 0 174.5 -32t107.5 -88t53.5 -134t14.5 -168v-68h-600q0 -74 14 -125q16 -66 50 -105.5t86 -57t124 -17.5q92 0 162 23.5t115 46.5l36 -99q-23 -14 -59.5 -28.5 t-80.5 -26.5t-94 -20t-99 -8q-213 0 -299 108q-20 27 -37 59q-14 -27 -33 -49q-94 -119 -311 -118q-111 0 -184.5 31.5t-117.5 90t-62.5 143.5t-18.5 191zM219 422q0 -70 10.5 -130.5t37 -105.5t72.5 -70.5t118 -25.5q160 0 219 89t59 265q0 68 -10 129.5t-36.5 106.5 t-73 71.5t-117.5 26.5q-160 0 -219.5 -91t-59.5 -265zM885 504h450q0 154 -55 214t-147 60q-72 0 -120 -20.5t-78 -63.5t-42 -108q-6 -37 -8 -82z" />
<glyph unicode="&#x178;" horiz-adv-x="1034" d="M-2 1245h174l338 -561h16l340 561h170l-446 -706v-539h-146v539zM279 1440v152h143v-152h-143zM613 1440v152h141v-152h-141z" />
<glyph unicode="&#x2c6;" horiz-adv-x="991" d="M195 993l202 299h193l205 -299h-136l-155 219h-19l-157 -219h-133z" />
<glyph unicode="&#x2dc;" horiz-adv-x="991" d="M190 1159q35 31 84.5 53.5t102.5 22.5q39 0 68.5 -9t56 -21.5t52.5 -21.5t56 -9q41 0 76 14t68 35l45 -90q-39 -33 -86 -53.5t-105 -20.5q-37 0 -67.5 9t-57 21.5t-52 21.5t-56.5 9q-39 0 -73 -15t-64 -36z" />
<glyph unicode="&#x2000;" horiz-adv-x="851" />
<glyph unicode="&#x2001;" horiz-adv-x="1702" />
<glyph unicode="&#x2002;" horiz-adv-x="851" />
<glyph unicode="&#x2003;" horiz-adv-x="1702" />
<glyph unicode="&#x2004;" horiz-adv-x="567" />
<glyph unicode="&#x2005;" horiz-adv-x="425" />
<glyph unicode="&#x2006;" horiz-adv-x="283" />
<glyph unicode="&#x2007;" horiz-adv-x="283" />
<glyph unicode="&#x2008;" horiz-adv-x="212" />
<glyph unicode="&#x2009;" horiz-adv-x="340" />
<glyph unicode="&#x200a;" horiz-adv-x="94" />
<glyph unicode="&#x2010;" horiz-adv-x="690" d="M111 379v125h471v-125h-471z" />
<glyph unicode="&#x2011;" horiz-adv-x="690" d="M111 379v125h471v-125h-471z" />
<glyph unicode="&#x2012;" horiz-adv-x="690" d="M111 379v125h471v-125h-471z" />
<glyph unicode="&#x2013;" horiz-adv-x="1017" d="M111 387v119h794v-119h-794z" />
<glyph unicode="&#x2014;" horiz-adv-x="1406" d="M80 387v119h1247v-119h-1247z" />
<glyph unicode="&#x2018;" horiz-adv-x="364" d="M108 874q2 143 36 241.5t97 192.5l97 -59q-47 -92 -68.5 -179t-21.5 -196h-140z" />
<glyph unicode="&#x2019;" horiz-adv-x="364" d="M57 922q47 92 68.5 179t21.5 196h140q-2 -143 -36 -241.5t-97 -192.5z" />
<glyph unicode="&#x201a;" horiz-adv-x="339" d="M14 -215q47 92 68.5 179t21.5 196h140q-2 -143 -36 -241.5t-97 -192.5z" />
<glyph unicode="&#x201c;" horiz-adv-x="698" d="M110 874q2 143 36 241.5t97 192.5l97 -59q-47 -92 -68.5 -179t-21.5 -196h-140zM420 874q2 143 36 241.5t97 192.5l97 -59q-47 -92 -68.5 -179t-21.5 -196h-140z" />
<glyph unicode="&#x201d;" horiz-adv-x="698" d="M82 922q47 92 68.5 179t21.5 196h140q-2 -143 -36 -241.5t-97 -192.5zM383 922q47 92 68.5 179t21.5 196h140q-2 -143 -36 -241.5t-97 -192.5z" />
<glyph unicode="&#x201e;" horiz-adv-x="692" d="M82 -215q47 92 68.5 179t21.5 196h140q-2 -143 -36 -241.5t-97 -192.5zM383 -215q47 92 68.5 179t21.5 196h140q-2 -143 -36 -241.5t-97 -192.5z" />
<glyph unicode="&#x2022;" horiz-adv-x="532" d="M70 498q0 82 55 137t141 55t141.5 -55t55.5 -137t-55.5 -138.5t-141.5 -56.5t-141 56.5t-55 138.5z" />
<glyph unicode="&#x2026;" horiz-adv-x="1077" d="M90 0v160h164v-160h-164zM457 0v160h166v-160h-166zM825 0v160h164v-160h-164z" />
<glyph unicode="&#x202f;" horiz-adv-x="340" />
<glyph unicode="&#x2039;" horiz-adv-x="538" d="M29 432l311 373l94 -76l-246 -295l244 -293l-94 -80z" />
<glyph unicode="&#x203a;" horiz-adv-x="538" d="M135 137l246 295l-244 293l94 80l309 -371l-311 -373z" />
<glyph unicode="&#x205f;" horiz-adv-x="425" />
<glyph unicode="&#x20ac;" horiz-adv-x="1163" d="M43 459l37 102h147v62v59h-178l37 100h150q29 215 139 330q147 154 409 154q92 0 173 -23.5t143 -66.5l-45 -123q-49 41 -112.5 66.5t-154.5 25.5q-217 0 -315 -139q-61 -86 -84 -224h569l-38 -100h-541q-2 -39 -2 -78v-43h500l-37 -102h-453q20 -135 82 -223 q94 -131 301 -132q86 0 152.5 11.5t126.5 31.5v-129q-66 -16 -137.5 -27t-147.5 -11q-283 2 -410 161q-92 117 -118 318h-193z" />
<glyph unicode="&#x2122;" horiz-adv-x="1423" d="M0 1151v94h522v-94h-200v-549h-121v549h-201zM612 602v643h197l113 -330l49 -176h18l49 176l107 330h192v-643h-112v399l4 146h-19l-163 -522h-136l-71 211l-103 311h-16l4 -146v-399h-113z" />
<glyph unicode="&#x25fc;" horiz-adv-x="870" d="M0 0v870h870v-870h-870z" />
</font>
</defs>
</svg>
